
<svg id="visual" viewBox="0 0 300 300" width="300" height="300" xmlns="http://www.w3.org/2000/svg" xmlns:xlink="http://www.w3.org/1999/xlink" version="1.1"><rect x="0" y="0" width="300" height="300" fill="#001220"></rect><path d="M0 193L7.2 193.2C14.3 193.3 28.7 193.7 43 194C57.3 194.3 71.7 194.7 86 197.8C100.3 201 114.7 207 128.8 208.2C143 209.3 157 205.7 171.2 207.3C185.3 209 199.7 216 214 214.3C228.3 212.7 242.7 202.3 257 198C271.3 193.7 285.7 195.3 292.8 196.2L300 197L300 301L292.8 301C285.7 301 271.3 301 257 301C242.7 301 228.3 301 214 301C199.7 301 185.3 301 171.2 301C157 301 143 301 128.8 301C114.7 301 100.3 301 86 301C71.7 301 57.3 301 43 301C28.7 301 14.3 301 7.2 301L0 301Z" fill="#fa7268"></path><path d="M0 238L7.2 233.7C14.3 229.3 28.7 220.7 43 219.7C57.3 218.7 71.7 225.3 86 222.8C100.3 220.3 114.7 208.7 128.8 209.2C143 209.7 157 222.3 171.2 225.5C185.3 228.7 199.7 222.3 214 219C228.3 215.7 242.7 215.3 257 218.5C271.3 221.7 285.7 228.3 292.8 231.7L300 235L300 301L292.8 301C285.7 301 271.3 301 257 301C242.7 301 228.3 301 214 301C199.7 301 185.3 301 171.2 301C157 301 143 301 128.8 301C114.7 301 100.3 301 86 301C71.7 301 57.3 301 43 301C28.7 301 14.3 301 7.2 301L0 301Z" fill="#ef5f67"></path><path d="M0 239L7.2 235.8C14.3 232.7 28.7 226.3 43 227.5C57.3 228.7 71.7 237.3 86 243C100.3 248.7 114.7 251.3 128.8 252.7C143 254 157 254 171.2 252.2C185.3 250.3 199.7 246.7 214 241.5C228.3 236.3 242.7 229.7 257 230.8C271.3 232 285.7 241 292.8 245.5L300 250L300 301L292.8 301C285.7 301 271.3 301 257 301C242.7 301 228.3 301 214 301C199.7 301 185.3 301 171.2 301C157 301 143 301 128.8 301C114.7 301 100.3 301 86 301C71.7 301 57.3 301 43 301C28.7 301 14.3 301 7.2 301L0 301Z" fill="#e34c67"></path><path d="M0 250L7.2 249.7C14.3 249.3 28.7 248.7 43 250.2C57.3 251.7 71.7 255.3 86 254C100.3 252.7 114.7 246.3 128.8 244.5C143 242.7 157 245.3 171.2 247.8C185.3 250.3 199.7 252.7 214 254.3C228.3 256 242.7 257 257 255.3C271.3 253.7 285.7 249.3 292.8 247.2L300 245L300 301L292.8 301C285.7 301 271.3 301 257 301C242.7 301 228.3 301 214 301C199.7 301 185.3 301 171.2 301C157 301 143 301 128.8 301C114.7 301 100.3 301 86 301C71.7 301 57.3 301 43 301C28.7 301 14.3 301 7.2 301L0 301Z" fill="#d53867"></path><path d="M0 275L7.2 273.7C14.3 272.3 28.7 269.7 43 271.2C57.3 272.7 71.7 278.3 86 280C100.3 281.7 114.7 279.3 128.8 278C143 276.7 157 276.3 171.2 274.8C185.3 273.3 199.7 270.7 214 269.7C228.3 268.7 242.7 269.3 257 269.8C271.3 270.3 285.7 270.7 292.8 270.8L300 271L300 301L292.8 301C285.7 301 271.3 301 257 301C242.7 301 228.3 301 214 301C199.7 301 185.3 301 171.2 301C157 301 143 301 128.8 301C114.7 301 100.3 301 86 301C71.7 301 57.3 301 43 301C28.7 301 14.3 301 7.2 301L0 301Z" fill="#c62368"></path></svg>